<svg xmlns="http://www.w3.org/2000/svg" width="200" height="112">
    <style>line, path, circle,rect,polygon {
                          stroke: black;
                          stroke-width: 2;
                          stroke-opacity: 1;
                          fill-opacity: 1;
                          stroke-linecap: round;
                          stroke-linejoin: miter;
                        }

                    text {
                        fill: black;
                        }
                        rect.backdrop{
                            stroke: none;
                            fill: white;
                        }
                        .broken{
                            stroke-dasharray: 8;
                        }
                        .filled{
                            fill: black;
                        }
                        .bg_filled{
                            fill: white;
                        }
                        .nofill{
                            fill: white;
                        }

                        text {
                         font-family: monospace;
                         font-size: 14px;
                        }

                        .end_marked_arrow{
                            marker-end: url(#arrow);
                         }
                        .start_marked_arrow{
                            marker-start: url(#arrow);
                         }

                        .end_marked_diamond{
                            marker-end: url(#diamond);
                         }
                        .start_marked_diamond{
                            marker-start: url(#diamond);
                         }

                        .end_marked_circle{
                            marker-end: url(#circle);
                         }
                        .start_marked_circle{
                            marker-start: url(#circle);
                         }

                        .end_marked_open_circle{
                            marker-end: url(#open_circle);
                         }
                        .start_marked_open_circle{
                            marker-start: url(#open_circle);
                         }

                        .end_marked_big_open_circle{
                            marker-end: url(#big_open_circle);
                         }
                        .start_marked_big_open_circle{
                            marker-start: url(#big_open_circle);
                         }

                         
                        </style>
    <defs>
        <marker id="arrow" viewBox="-2 -2 8 8" refX="4" refY="2" markerWidth="7" markerHeight="7" orient="auto-start-reverse">
            <polygon points="0,0 0,4 4,2 0,0"></polygon>
        </marker>
        <marker id="diamond" viewBox="-2 -2 8 8" refX="4" refY="2" markerWidth="7" markerHeight="7" orient="auto-start-reverse">
            <polygon points="0,2 2,0 4,2 2,4 0,2"></polygon>
        </marker>
        <marker id="circle" viewBox="0 0 8 8" refX="4" refY="4" markerWidth="7" markerHeight="7" orient="auto-start-reverse">
            <circle cx="4" cy="4" r="2" class="filled"></circle>
        </marker>
        <marker id="open_circle" viewBox="0 0 8 8" refX="4" refY="4" markerWidth="7" markerHeight="7" orient="auto-start-reverse">
            <circle cx="4" cy="4" r="2" class="bg_filled"></circle>
        </marker>
        <marker id="big_open_circle" viewBox="0 0 8 8" refX="4" refY="4" markerWidth="7" markerHeight="7" orient="auto-start-reverse">
            <circle cx="4" cy="4" r="3" class="bg_filled"></circle>
        </marker>
    </defs>
    <rect class="backdrop" x="0" y="0" width="200" height="112"></rect>
    <circle cx="104" cy="24" r="20" class="nofill"></circle>
    <line x1="32" y1="8" x2="72" y2="8" class="broken end_marked_arrow"></line>
    <polygon points="144,36 136,40 144,44" class="filled"></polygon>
    <line x1="8" y1="72" x2="48" y2="72" class="broken end_marked_arrow"></line>
    <line x1="8" y1="88" x2="48" y2="88" class="solid end_marked_arrow"></line>
    <text x="58" y="76" >prev</text>
    <text x="58" y="92" >next</text>
    <g>
        <path d="M 32,8 A 8,8 0,0,0 26,12" class="nofill"></path>
        <line x1="26" y1="12" x2="24" y2="16" class="solid"></line>
        <path d="M 24,16 A 16,16 0,0,0 24,32" class="nofill"></path>
        <line x1="24" y1="32" x2="26" y2="36" class="solid"></line>
        <path d="M 26,36 A 8,8 0,0,0 32,40" class="nofill"></path>
        <line x1="32" y1="40" x2="72" y2="40" class="broken"></line>
    </g>
    <g>
        <line x1="136" y1="8" x2="176" y2="8" class="solid"></line>
        <path d="M 176,8 A 8,8 0,0,1 182,12" class="nofill"></path>
        <line x1="182" y1="12" x2="184" y2="16" class="solid"></line>
        <path d="M 184,16 A 16,16 0,0,1 184,32" class="nofill"></path>
        <line x1="184" y1="32" x2="182" y2="36" class="solid"></line>
        <line x1="144" y1="40" x2="176" y2="40" class="solid"></line>
        <path d="M 182,36 A 8,8 0,0,1 176,40" class="nofill"></path>
    </g>
</svg>
